<svg width="42" height="42" viewBox="0 0 42 42" fill="none" xmlns="http://www.w3.org/2000/svg">
<path d="M36.197 4.78564H6.73786C6.0294 4.78564 5.45703 5.35802 5.45703 6.06648V35.5256C5.45703 36.2341 6.0294 36.8064 6.73786 36.8064H36.197C36.9054 36.8064 37.4778 36.2341 37.4778 35.5256V6.06648C37.4778 5.35802 36.9054 4.78564 36.197 4.78564ZM14.9552 32.0714H10.2041V16.7894H14.9552V32.0714ZM12.5817 14.7001C12.037 14.7001 11.5046 14.5386 11.0517 14.236C10.5989 13.9334 10.2459 13.5033 10.0375 13.0001C9.82906 12.4969 9.77453 11.9432 9.88078 11.4091C9.98704 10.8749 10.2493 10.3842 10.6344 9.99907C11.0196 9.61395 11.5102 9.35167 12.0444 9.24542C12.5786 9.13916 13.1323 9.1937 13.6355 9.40212C14.1387 9.61055 14.5688 9.96351 14.8713 10.4164C15.1739 10.8692 15.3354 11.4016 15.3354 11.9463C15.3314 13.4673 14.0986 14.7001 12.5817 14.7001ZM32.7427 32.0714H27.9957V24.6385C27.9957 22.8654 27.9636 20.5879 25.5261 20.5879C23.0565 20.5879 22.6762 22.5171 22.6762 24.5104V32.0714H17.9331V16.7894H22.4881V18.8788H22.5521C23.1845 17.678 24.7335 16.4092 27.047 16.4092C31.8582 16.4092 32.7427 19.5752 32.7427 23.6899V32.0714Z" fill="white"/>
</svg>
