<svg width="42" height="42" viewBox="0 0 42 42" fill="none" xmlns="http://www.w3.org/2000/svg">
<path d="M36.2126 4.78564H6.75349C6.04503 4.78564 5.47266 5.35802 5.47266 6.06648V35.5256C5.47266 36.2341 6.04503 36.8064 6.75349 36.8064H36.2126C36.9211 36.8064 37.4934 36.2341 37.4934 35.5256V6.06648C37.4934 5.35802 36.9211 4.78564 36.2126 4.78564ZM32.5142 14.1317H29.9565C27.9512 14.1317 27.563 15.0843 27.563 16.4852V19.5712H32.3501L31.7257 24.4024H27.563V36.8064H22.5718V24.4064H18.397V19.5712H22.5718V16.0089C22.5718 11.8742 25.0974 9.62078 28.7878 9.62078C30.5569 9.62078 32.0739 9.75287 32.5182 9.81291V14.1317H32.5142Z" fill="white"/>
</svg>
