<svg width="41" height="42" viewBox="0 0 41 42" fill="none" xmlns="http://www.w3.org/2000/svg">
<path d="M37.1455 10.4812C35.9207 11.0095 34.5878 11.3898 33.2149 11.5379C34.6403 10.6911 35.7077 9.35326 36.2168 7.77544C34.8793 8.57111 33.414 9.12905 31.886 9.42451C31.2474 8.74177 30.475 8.19787 29.617 7.8267C28.7589 7.45553 27.8337 7.26504 26.8988 7.26711C23.1163 7.26711 20.0744 10.3331 20.0744 14.0955C20.0744 14.6239 20.1384 15.1522 20.2425 15.6606C14.5788 15.3644 9.52753 12.6586 6.16936 8.51592C5.55746 9.56106 5.2368 10.7511 5.24075 11.9622C5.24075 14.3317 6.44553 16.421 8.28273 17.6498C7.20004 17.6072 6.14271 17.3096 5.19672 16.7813V16.8653C5.19672 20.1835 7.54225 22.9333 10.6683 23.5657C10.0813 23.7181 9.47753 23.7961 8.87111 23.7978C8.42682 23.7978 8.00655 23.7538 7.58227 23.6938C8.44683 26.3995 10.9645 28.3648 13.9624 28.4288C11.6169 30.266 8.67898 31.3467 5.48891 31.3467C4.91654 31.3467 4.3882 31.3267 3.83984 31.2627C6.86581 33.2039 10.4561 34.3247 14.3226 34.3247C26.8748 34.3247 33.7432 23.9259 33.7432 14.9001C33.7432 14.6039 33.7432 14.3077 33.7232 14.0115C35.0521 13.0389 36.2168 11.8341 37.1455 10.4812Z" fill="white"/>
</svg>
