<svg width="161" height="48" viewBox="0 0 161 48" fill="none" xmlns="http://www.w3.org/2000/svg">
<g clip-path="url(#clip0_67_9560)">
<path d="M23.3346 7.76123H11.668C9.24714 7.76123 7.29297 9.7154 7.29297 12.1362V35.4696C7.29297 37.8904 9.24714 39.8446 11.668 39.8446H23.3346C25.7555 39.8446 27.7096 37.8904 27.7096 35.4696V12.1362C27.7096 9.7154 25.7555 7.76123 23.3346 7.76123ZM20.418 36.9279H14.5846V35.4696H20.418V36.9279ZM25.1576 32.5529H9.84505V12.1362H25.1576V32.5529Z" fill="white"/>
<path d="M45.9741 24.9741C45.9741 23.8706 46.1206 22.811 46.4136 21.7954C46.7114 20.7798 47.1533 19.8569 47.7393 19.0269C48.3252 18.1968 48.9331 17.6108 49.563 17.269L49.8413 18.1626C49.1284 18.7095 48.5425 19.5444 48.0835 20.6675C47.6294 21.7905 47.3804 23.0479 47.3364 24.4395L47.3291 25.062C47.3291 26.9468 47.6733 28.5825 48.3618 29.9692C48.7769 30.7993 49.27 31.4487 49.8413 31.9175L49.563 32.7451C48.9136 32.3838 48.2935 31.7783 47.7026 30.9287C46.5503 29.2686 45.9741 27.2837 45.9741 24.9741ZM58.2005 29.3027H51.2132V28.3286L54.9046 24.2271C55.4515 23.6069 55.8274 23.104 56.0325 22.7183C56.2425 22.3276 56.3475 21.9248 56.3475 21.5098C56.3475 20.9531 56.179 20.4966 55.8421 20.1401C55.5052 19.7837 55.056 19.6055 54.4944 19.6055C53.8206 19.6055 53.2957 19.7983 52.9197 20.1841C52.5486 20.5649 52.3631 21.0972 52.3631 21.7808H51.0081C51.0081 20.7993 51.323 20.0059 51.9529 19.4004C52.5877 18.7949 53.4349 18.4922 54.4944 18.4922C55.4856 18.4922 56.2693 18.7534 56.8455 19.2759C57.4217 19.7935 57.7098 20.4844 57.7098 21.3486C57.7098 22.3984 57.0408 23.6484 55.7029 25.0986L52.8465 28.1968H58.2005V29.3027ZM61.8062 23.3115H62.8243C63.464 23.3018 63.9669 23.1333 64.3331 22.8062C64.6993 22.479 64.8824 22.0371 64.8824 21.4805C64.8824 20.2305 64.2599 19.6055 63.0147 19.6055C62.4288 19.6055 61.9601 19.7739 61.6085 20.1108C61.2618 20.4429 61.0885 20.8848 61.0885 21.4365H59.7335C59.7335 20.5918 60.0411 19.8911 60.6563 19.3345C61.2765 18.7729 62.0626 18.4922 63.0147 18.4922C64.0206 18.4922 64.8092 18.7583 65.3805 19.2905C65.9518 19.8228 66.2374 20.5625 66.2374 21.5098C66.2374 21.9736 66.086 22.4229 65.7833 22.8574C65.4854 23.292 65.0777 23.6167 64.5602 23.8315C65.1461 24.0171 65.5978 24.3247 65.9151 24.7544C66.2374 25.1841 66.3985 25.709 66.3985 26.3291C66.3985 27.2861 66.086 28.0454 65.461 28.6069C64.836 29.1685 64.023 29.4492 63.0221 29.4492C62.0211 29.4492 61.2057 29.1782 60.5758 28.6362C59.9508 28.0942 59.6383 27.3789 59.6383 26.4902H61.0006C61.0006 27.0518 61.1837 27.501 61.5499 27.8379C61.9161 28.1748 62.4068 28.3433 63.0221 28.3433C63.6764 28.3433 64.1769 28.1724 64.5235 27.8306C64.8702 27.4888 65.0436 26.998 65.0436 26.3584C65.0436 25.7383 64.8531 25.2622 64.4723 24.9302C64.0914 24.5981 63.5421 24.4272 62.8243 24.4175H61.8062V23.3115ZM73.6518 24.6152C73.3686 24.9521 73.0292 25.2231 72.6337 25.4282C72.2431 25.6333 71.8134 25.7358 71.3446 25.7358C70.7294 25.7358 70.1923 25.5845 69.7333 25.2817C69.2792 24.979 68.9276 24.5542 68.6786 24.0073C68.4296 23.4556 68.3051 22.8477 68.3051 22.1836C68.3051 21.4707 68.4394 20.8286 68.7079 20.2573C68.9813 19.686 69.3671 19.249 69.8651 18.9463C70.3632 18.6436 70.9442 18.4922 71.6083 18.4922C72.663 18.4922 73.4931 18.8877 74.0985 19.6787C74.7089 20.4648 75.0141 21.5391 75.0141 22.9014V23.2969C75.0141 25.3721 74.6039 26.8882 73.7836 27.8452C72.9633 28.7974 71.7255 29.2856 70.0702 29.3101H69.8065V28.1675H70.0922C71.2104 28.1479 72.0697 27.8574 72.6703 27.2959C73.2709 26.7295 73.598 25.8359 73.6518 24.6152ZM71.5644 24.6152C72.0185 24.6152 72.4359 24.4761 72.8168 24.1978C73.2025 23.9194 73.4833 23.5752 73.6591 23.165V22.623C73.6591 21.7344 73.4662 21.0117 73.0805 20.4551C72.6947 19.8984 72.2064 19.6201 71.6156 19.6201C71.0199 19.6201 70.5414 19.8496 70.1801 20.3086C69.8188 20.7627 69.6381 21.3633 69.6381 22.1104C69.6381 22.8379 69.8114 23.4385 70.1581 23.9121C70.5097 24.3809 70.9784 24.6152 71.5644 24.6152ZM80.3483 25.0474C80.3483 26.1362 80.2043 27.1812 79.9162 28.1821C79.633 29.1782 79.196 30.0986 78.6052 30.9434C78.0192 31.7881 77.404 32.3887 76.7595 32.7451L76.4738 31.9175C77.2258 31.3413 77.8288 30.4478 78.2829 29.2368C78.7419 28.021 78.9763 26.6733 78.986 25.1938V24.9595C78.986 23.9341 78.8786 22.9819 78.6638 22.103C78.4489 21.2192 78.1486 20.4282 77.7629 19.73C77.382 19.0317 76.9523 18.4873 76.4738 18.0967L76.7595 17.269C77.404 17.6255 78.0168 18.2212 78.5979 19.0562C79.1838 19.8911 79.6208 20.8115 79.9089 21.8174C80.2019 22.8232 80.3483 23.8999 80.3483 25.0474ZM87.0398 23.9561L87.5818 18.6387H93.0457V19.8911H88.7317L88.4095 22.7988C88.9319 22.4912 89.5252 22.3374 90.1893 22.3374C91.1609 22.3374 91.9324 22.6597 92.5037 23.3042C93.075 23.9438 93.3606 24.8105 93.3606 25.9043C93.3606 27.0029 93.0628 27.8696 92.4671 28.5044C91.8763 29.1343 91.0486 29.4492 89.9842 29.4492C89.0418 29.4492 88.2728 29.188 87.6771 28.6655C87.0813 28.1431 86.742 27.4204 86.659 26.4976H87.9407C88.0237 27.1079 88.241 27.5693 88.5926 27.8818C88.9441 28.1895 89.408 28.3433 89.9842 28.3433C90.6141 28.3433 91.1072 28.1284 91.4637 27.6987C91.825 27.269 92.0057 26.6758 92.0057 25.9189C92.0057 25.2061 91.8104 24.6348 91.4197 24.2051C91.034 23.7705 90.5188 23.5532 89.8743 23.5532C89.2835 23.5532 88.8196 23.6826 88.4827 23.9414L88.1238 24.2344L87.0398 23.9561ZM95.6627 23.9561L96.2047 18.6387H101.669V19.8911H97.3546L97.0323 22.7988C97.5548 22.4912 98.148 22.3374 98.8121 22.3374C99.7838 22.3374 100.555 22.6597 101.127 23.3042C101.698 23.9438 101.983 24.8105 101.983 25.9043C101.983 27.0029 101.686 27.8696 101.09 28.5044C100.499 29.1343 99.6715 29.4492 98.607 29.4492C97.6646 29.4492 96.8956 29.188 96.2999 28.6655C95.7042 28.1431 95.3648 27.4204 95.2818 26.4976H96.5636C96.6466 27.1079 96.8639 27.5693 97.2154 27.8818C97.567 28.1895 98.0309 28.3433 98.607 28.3433C99.2369 28.3433 99.7301 28.1284 100.087 27.6987C100.448 27.269 100.629 26.6758 100.629 25.9189C100.629 25.2061 100.433 24.6348 100.043 24.2051C99.6568 23.7705 99.1417 23.5532 98.4972 23.5532C97.9063 23.5532 97.4425 23.6826 97.1056 23.9414L96.7467 24.2344L95.6627 23.9561ZM104.286 23.9561L104.828 18.6387H110.291V19.8911H105.977L105.655 22.7988C106.178 22.4912 106.771 22.3374 107.435 22.3374C108.407 22.3374 109.178 22.6597 109.749 23.3042C110.321 23.9438 110.606 24.8105 110.606 25.9043C110.606 27.0029 110.308 27.8696 109.713 28.5044C109.122 29.1343 108.294 29.4492 107.23 29.4492C106.287 29.4492 105.518 29.188 104.923 28.6655C104.327 28.1431 103.988 27.4204 103.905 26.4976H105.186C105.269 27.1079 105.487 27.5693 105.838 27.8818C106.19 28.1895 106.654 28.3433 107.23 28.3433C107.86 28.3433 108.353 28.1284 108.709 27.6987C109.071 27.269 109.251 26.6758 109.251 25.9189C109.251 25.2061 109.056 24.6348 108.665 24.2051C108.28 23.7705 107.765 23.5532 107.12 23.5532C106.529 23.5532 106.065 23.6826 105.728 23.9414L105.37 24.2344L104.286 23.9561ZM115.245 25.3257H111.671V24.2197H115.245V25.3257ZM123.318 24.7544C123.318 26.3413 123.047 27.5205 122.505 28.292C121.963 29.0635 121.116 29.4492 119.964 29.4492C118.826 29.4492 117.984 29.0732 117.437 28.3213C116.89 27.5645 116.607 26.4365 116.587 24.9375V23.1284C116.587 21.561 116.858 20.3965 117.4 19.6348C117.942 18.873 118.792 18.4922 119.949 18.4922C121.097 18.4922 121.941 18.8608 122.483 19.5981C123.025 20.3306 123.304 21.4634 123.318 22.9966V24.7544ZM121.963 22.9014C121.963 21.7539 121.802 20.9189 121.48 20.3965C121.158 19.8691 120.647 19.6055 119.949 19.6055C119.256 19.6055 118.75 19.8667 118.433 20.3892C118.116 20.9116 117.952 21.7148 117.942 22.7988V24.9668C117.942 26.1191 118.108 26.9712 118.44 27.5229C118.777 28.0698 119.285 28.3433 119.964 28.3433C120.633 28.3433 121.128 28.0845 121.451 27.5669C121.778 27.0493 121.949 26.2339 121.963 25.1206V22.9014ZM129.707 29.3027H128.345V20.272L125.613 21.2754V20.0449L129.495 18.5874H129.707V29.3027ZM140.564 24.7544C140.564 26.3413 140.293 27.5205 139.751 28.292C139.209 29.0635 138.362 29.4492 137.21 29.4492C136.072 29.4492 135.23 29.0732 134.683 28.3213C134.136 27.5645 133.853 26.4365 133.833 24.9375V23.1284C133.833 21.561 134.104 20.3965 134.646 19.6348C135.188 18.873 136.038 18.4922 137.195 18.4922C138.342 18.4922 139.187 18.8608 139.729 19.5981C140.271 20.3306 140.549 21.4634 140.564 22.9966V24.7544ZM139.209 22.9014C139.209 21.7539 139.048 20.9189 138.726 20.3965C138.403 19.8691 137.893 19.6055 137.195 19.6055C136.502 19.6055 135.996 19.8667 135.679 20.3892C135.361 20.9116 135.198 21.7148 135.188 22.7988V24.9668C135.188 26.1191 135.354 26.9712 135.686 27.5229C136.023 28.0698 136.531 28.3433 137.21 28.3433C137.879 28.3433 138.374 28.0845 138.696 27.5669C139.024 27.0493 139.194 26.2339 139.209 25.1206V22.9014ZM148.967 21.4219C148.967 21.9541 148.826 22.4277 148.542 22.8428C148.264 23.2578 147.886 23.5825 147.407 23.8169C147.964 24.0562 148.403 24.4053 148.725 24.8643C149.053 25.3232 149.216 25.8433 149.216 26.4243C149.216 27.3472 148.904 28.082 148.279 28.6289C147.659 29.1758 146.841 29.4492 145.825 29.4492C144.8 29.4492 143.977 29.1758 143.357 28.6289C142.742 28.0771 142.434 27.3423 142.434 26.4243C142.434 25.8481 142.59 25.3281 142.903 24.8643C143.22 24.4004 143.657 24.0488 144.214 23.8096C143.74 23.5752 143.367 23.2505 143.093 22.8354C142.82 22.4204 142.683 21.9492 142.683 21.4219C142.683 20.5234 142.971 19.8105 143.547 19.2832C144.123 18.7559 144.883 18.4922 145.825 18.4922C146.763 18.4922 147.519 18.7559 148.096 19.2832C148.677 19.8105 148.967 20.5234 148.967 21.4219ZM147.861 26.395C147.861 25.7993 147.671 25.3135 147.29 24.9375C146.914 24.5615 146.421 24.3735 145.81 24.3735C145.2 24.3735 144.709 24.5591 144.338 24.9302C143.972 25.3013 143.789 25.7896 143.789 26.395C143.789 27.0005 143.967 27.4766 144.324 27.8232C144.685 28.1699 145.185 28.3433 145.825 28.3433C146.46 28.3433 146.958 28.1699 147.319 27.8232C147.681 27.4717 147.861 26.9956 147.861 26.395ZM145.825 19.6055C145.293 19.6055 144.861 19.7715 144.529 20.1035C144.202 20.4307 144.038 20.8774 144.038 21.4438C144.038 21.9858 144.199 22.4253 144.521 22.7622C144.849 23.0942 145.283 23.2603 145.825 23.2603C146.367 23.2603 146.799 23.0942 147.121 22.7622C147.449 22.4253 147.612 21.9858 147.612 21.4438C147.612 20.9019 147.444 20.46 147.107 20.1182C146.77 19.7764 146.343 19.6055 145.825 19.6055Z" fill="white"/>
</g>
<defs>
<clipPath id="clip0_67_9560">
<rect width="161" height="47" fill="white" transform="translate(0 0.302734)"/>
</clipPath>
</defs>
</svg>
